<svg width="187" height="187" viewBox="0 0 187 187" fill="none" xmlns="http://www.w3.org/2000/svg">
<rect width="187" height="187" fill="#AD1E1E"/>
<path d="M16.24 83.92C18.032 83.504 19.696 83.296 21.232 83.296C22.768 83.296 24.064 83.344 25.12 83.44V95.44C25.792 94.96 26.688 94.544 27.808 94.192C28.928 93.808 30 93.616 31.024 93.616C34.512 93.616 36.96 94.512 38.368 96.304C39.776 98.096 40.48 101.152 40.48 105.472C40.48 107.872 40.144 109.952 39.472 111.712C38.832 113.44 37.952 114.768 36.832 115.696C34.72 117.488 32.224 118.384 29.344 118.384C27.168 118.384 25.024 117.84 22.912 116.752C22.304 117.584 21.6 118 20.8 118H18.4V89.248C17.28 88.864 16.4 88.32 15.76 87.616L16.24 83.92ZM28.96 113.488C32.032 113.488 33.568 110.912 33.568 105.76C33.568 103.04 33.296 101.2 32.752 100.24C32.24 99.248 31.328 98.752 30.016 98.752C28.032 98.752 26.4 99.28 25.12 100.336V112.672C26.496 113.216 27.776 113.488 28.96 113.488ZM43.9893 97.552C43.9893 97.072 44.0053 96.56 44.0373 96.016C47.0133 94.416 50.2133 93.616 53.6373 93.616C57.0613 93.616 59.5093 94.272 60.9813 95.584C62.4853 96.864 63.2373 99.008 63.2373 102.016V112.24C64.3573 112.464 65.2373 112.736 65.8773 113.056V117.232C64.2453 118 61.9093 118.384 58.8693 118.384C58.5493 117.552 58.2773 116.544 58.0533 115.36C56.6773 117.376 54.1813 118.384 50.5653 118.384C48.4213 118.384 46.5813 117.76 45.0453 116.512C43.5413 115.264 42.7893 113.568 42.7893 111.424C42.7893 109.28 43.4933 107.6 44.9013 106.384C46.3413 105.136 48.4693 104.512 51.2853 104.512H56.5173V102.208C56.5173 99.712 55.1893 98.464 52.5333 98.464C51.5413 98.464 50.7253 98.56 50.0853 98.752C50.0213 100.096 49.8293 101.136 49.5093 101.872H44.8053C44.2613 100.752 43.9893 99.312 43.9893 97.552ZM52.6293 113.488C54.2613 113.488 55.5573 113.008 56.5173 112.048V108.112H53.1573C50.8533 108.112 49.7013 108.992 49.7013 110.752C49.7013 111.552 49.9413 112.208 50.4213 112.72C50.9333 113.232 51.6693 113.488 52.6293 113.488ZM76.3278 87.952V94H83.1918V98.032H76.3278V110.176C76.3278 111.2 76.4718 111.952 76.7598 112.432C77.0478 112.88 77.7358 113.104 78.8238 113.104C79.9118 113.104 81.0798 112.864 82.3278 112.384L83.7678 116.128C81.3038 117.376 78.7758 118 76.1838 118C73.6238 118 71.8798 117.456 70.9518 116.368C70.0558 115.248 69.6078 113.632 69.6078 111.52V98.032H67.4478L66.9198 95.104C67.4318 94.496 68.4878 93.888 70.0878 93.28C70.4718 90.656 71.3838 88.88 72.8238 87.952H76.3278ZM94.1871 87.952V94H101.051V98.032H94.1871V110.176C94.1871 111.2 94.3311 111.952 94.6191 112.432C94.9071 112.88 95.5951 113.104 96.6831 113.104C97.7711 113.104 98.9391 112.864 100.187 112.384L101.627 116.128C99.1631 117.376 96.6351 118 94.0431 118C91.4831 118 89.7391 117.456 88.8111 116.368C87.9151 115.248 87.4671 113.632 87.4671 111.52V98.032H85.3071L84.7791 95.104C85.2911 94.496 86.3471 93.888 87.9471 93.28C88.3311 90.656 89.2431 88.88 90.6831 87.952H94.1871ZM114.831 118.384C110.991 118.384 108.095 117.36 106.143 115.312C104.223 113.264 103.263 110.288 103.263 106.384C103.263 104.016 103.599 101.984 104.271 100.288C104.943 98.56 105.855 97.232 107.007 96.304C109.247 94.512 111.855 93.616 114.831 93.616C117.807 93.616 120.079 94.384 121.647 95.92C123.247 97.424 124.047 100.144 124.047 104.08C124.047 106.384 122.911 107.536 120.639 107.536H110.223C110.351 109.552 110.863 110.976 111.759 111.808C112.687 112.64 114.143 113.056 116.127 113.056C117.215 113.056 118.255 112.928 119.247 112.672C120.239 112.416 120.959 112.16 121.407 111.904L122.079 111.52L123.519 115.36C123.327 115.584 123.039 115.872 122.655 116.224C122.303 116.544 121.375 116.992 119.871 117.568C118.399 118.112 116.719 118.384 114.831 118.384ZM117.855 103.264C117.919 102.816 117.951 102.272 117.951 101.632C117.951 100.992 117.695 100.32 117.183 99.616C116.671 98.88 115.775 98.512 114.495 98.512C113.247 98.512 112.287 98.896 111.615 99.664C110.943 100.432 110.495 101.728 110.271 103.552L117.855 103.264ZM140.914 99.904C138.482 99.904 136.802 100.368 135.874 101.296V112.288C138.466 112.768 140.242 113.44 141.202 114.304L140.722 118H126.994L126.514 114.304C126.962 113.696 127.842 113.152 129.154 112.672V99.328C128.034 98.944 127.154 98.4 126.514 97.696L126.994 94C128.754 93.616 130.338 93.424 131.746 93.424C133.154 93.424 134.322 93.456 135.25 93.52V96.544C135.986 95.68 136.93 94.976 138.082 94.432C139.234 93.856 140.274 93.568 141.202 93.568C142.162 93.568 142.818 93.648 143.17 93.808L143.026 100.048C142.386 99.952 141.682 99.904 140.914 99.904ZM151.603 123.568C152.179 123.568 152.787 123.024 153.427 121.936C154.099 120.88 154.563 119.616 154.819 118.144L146.947 99.52C145.379 99.008 144.323 98.4 143.779 97.696L144.259 94H155.299L155.779 97.696C155.363 98.208 154.659 98.672 153.667 99.088L156.307 106.336C156.883 107.84 157.283 109.328 157.507 110.8L157.651 111.472H158.323C158.579 109.872 159.027 108.192 159.667 106.432L162.211 99.328C161.027 98.88 160.195 98.336 159.715 97.696L160.195 94H170.755L171.235 97.696C170.659 98.432 169.603 99.056 168.067 99.568L160.147 118.288C158.643 121.84 157.491 124.128 156.691 125.152C155.283 127.04 153.315 127.984 150.787 127.984C148.291 127.984 146.387 127.328 145.075 126.016C145.043 125.696 145.027 125.376 145.027 125.056C145.027 123.296 145.395 121.632 146.131 120.064H150.115C150.595 120.928 150.867 122.096 150.931 123.568H151.603Z" fill="white"/>
<path d="M42.848 64.936C40.736 64.936 39.68 65.56 39.68 66.808C39.68 67.992 40.784 68.872 42.992 69.448L46.784 70.456C50.688 71.48 52.64 73.736 52.64 77.224C52.64 79.624 51.792 81.592 50.096 83.128C48.432 84.632 45.76 85.384 42.08 85.384C38.432 85.384 35.584 84.872 33.536 83.848C33.504 83.496 33.488 83.144 33.488 82.792C33.488 81.032 33.84 79.448 34.544 78.04H38.528C38.944 78.808 39.216 79.608 39.344 80.44C39.984 80.632 40.896 80.728 42.08 80.728C44.896 80.728 46.304 79.928 46.304 78.328C46.304 77.816 46.112 77.4 45.728 77.08C45.344 76.728 44.592 76.392 43.472 76.072L39.68 74.968C37.728 74.424 36.208 73.624 35.12 72.568C34.032 71.48 33.488 69.896 33.488 67.816C33.488 65.704 34.336 63.976 36.032 62.632C37.728 61.288 40.144 60.616 43.28 60.616C46.448 60.616 49.12 61.08 51.296 62.008C51.328 62.328 51.344 62.648 51.344 62.968C51.344 64.632 50.992 66.168 50.288 67.576H46.352C45.936 66.84 45.664 66.072 45.536 65.272C44.64 65.048 43.744 64.936 42.848 64.936ZM63.6403 54.952V61H70.5043V65.032H63.6403V77.176C63.6403 78.2 63.7843 78.952 64.0723 79.432C64.3603 79.88 65.0483 80.104 66.1363 80.104C67.2243 80.104 68.3923 79.864 69.6403 79.384L71.0803 83.128C68.6163 84.376 66.0883 85 63.4963 85C60.9363 85 59.1923 84.456 58.2643 83.368C57.3683 82.248 56.9203 80.632 56.9203 78.52V65.032H54.7603L54.2323 62.104C54.7443 61.496 55.8003 60.888 57.4003 60.28C57.7843 57.656 58.6963 55.88 60.1363 54.952H63.6403ZM73.7236 64.552C73.7236 64.072 73.7396 63.56 73.7716 63.016C76.7476 61.416 79.9476 60.616 83.3716 60.616C86.7956 60.616 89.2436 61.272 90.7156 62.584C92.2196 63.864 92.9716 66.008 92.9716 69.016V79.24C94.0916 79.464 94.9716 79.736 95.6116 80.056V84.232C93.9796 85 91.6436 85.384 88.6036 85.384C88.2836 84.552 88.0116 83.544 87.7876 82.36C86.4116 84.376 83.9156 85.384 80.2996 85.384C78.1556 85.384 76.3156 84.76 74.7796 83.512C73.2756 82.264 72.5236 80.568 72.5236 78.424C72.5236 76.28 73.2276 74.6 74.6356 73.384C76.0756 72.136 78.2036 71.512 81.0196 71.512H86.2516V69.208C86.2516 66.712 84.9236 65.464 82.2676 65.464C81.2756 65.464 80.4596 65.56 79.8196 65.752C79.7556 67.096 79.5636 68.136 79.2436 68.872H74.5396C73.9956 67.752 73.7236 66.312 73.7236 64.552ZM82.3636 80.488C83.9956 80.488 85.2916 80.008 86.2516 79.048V75.112H82.8916C80.5876 75.112 79.4356 75.992 79.4356 77.752C79.4356 78.552 79.6756 79.208 80.1556 79.72C80.6676 80.232 81.4036 80.488 82.3636 80.488ZM106.062 54.952V61H112.926V65.032H106.062V77.176C106.062 78.2 106.206 78.952 106.494 79.432C106.782 79.88 107.47 80.104 108.558 80.104C109.646 80.104 110.814 79.864 112.062 79.384L113.502 83.128C111.038 84.376 108.51 85 105.918 85C103.358 85 101.614 84.456 100.686 83.368C99.7901 82.248 99.3421 80.632 99.3421 78.52V65.032H97.1821L96.6541 62.104C97.1661 61.496 98.2221 60.888 99.8221 60.28C100.206 57.656 101.118 55.88 102.558 54.952H106.062ZM115.762 61C117.554 60.584 119.218 60.376 120.754 60.376C122.29 60.376 123.586 60.424 124.642 60.52V79.672C125.89 80.152 126.77 80.696 127.282 81.304L126.802 85H115.762L115.282 81.304C115.73 80.696 116.61 80.152 117.922 79.672V66.328C116.802 65.944 115.922 65.4 115.282 64.696L115.762 61ZM121.186 57.688C118.53 57.688 117.202 56.488 117.202 54.088C117.202 51.656 118.53 50.44 121.186 50.44C123.874 50.44 125.218 51.656 125.218 54.088C125.218 56.488 123.874 57.688 121.186 57.688ZM140.481 65.512C137.537 65.512 136.065 68.04 136.065 73.096C136.065 75.656 136.465 77.448 137.265 78.472C138.097 79.464 139.281 79.96 140.817 79.96C143.249 79.96 145.393 79.736 147.249 79.288L148.689 82.984C147.665 83.656 146.289 84.232 144.561 84.712C142.833 85.16 141.153 85.384 139.521 85.384C132.609 85.384 129.153 81.384 129.153 73.384C129.153 68.712 130.353 65.352 132.753 63.304C134.897 61.512 137.505 60.616 140.577 60.616C143.649 60.616 146.209 61.192 148.257 62.344C148.289 62.664 148.305 62.968 148.305 63.256C148.305 65.08 147.889 66.808 147.057 68.44H142.833C142.385 67.64 142.113 66.68 142.017 65.56C141.633 65.528 141.121 65.512 140.481 65.512Z" fill="white"/>
</svg>
